# xmcd CD database file generated by OrangeCD 5.2
#
# Track frame offsets:
#	150
#	13349
#	30693
#	52461
#	66035
#	76549
#	90609
#	105277
#	117366
#	137494
#	153754
#	171676
#	185239
#	199640
#	213011
#	232042
#	244717
#
# Disc length: 3437 seconds
#
# Revision: 0
# Processed by: cddbd v1.5.1PL2 Copyright (c) Steve Scherf et al.
# Submitted via: OrangeCD 5.2
#
DISCID=e50d6b11
DTITLE=Johnny Cash - Live In Minneapolis
DYEAR=1900
DGENRE=Country
TTITLE0=Ring Of Fire
TTITLE1=Sunday Morning Coming Down
TTITLE2=Peace In The Valley
TTITLE3=Earl Ball - Crazy Arms
TTITLE4=Big River
TTITLE5=Get Rhythm
TTITLE6=I Still Miss Someone
TTITLE7=Ragged Old Flag
TTITLE8=Highwayman
TTITLE9=Tennessee Flat Top Box
TTITLE10=The Wall - Long Black Veil
TTITLE11=Jimmy Tittle - Johnny Cash Tribute
TTITLE12=Ghost Riders In The Sky
TTITLE13=Johnny Cash and June Carter Cash - If I Were A Carpenter
TTITLE14=Johnny Cash and June Carter Cash - Where Did We Go Right
TTITLE15=Johnny Cash and June Carter Cash - Jackson
TTITLE16=Johnny Cash and June Carter Cash - Wreck Of The Old '97
EXTD=Recorded Live In Minneapolis, 20 March 1989
EXTT0=
EXTT1=
EXTT2=
EXTT3=
EXTT4=
EXTT5=
EXTT6=
EXTT7=
EXTT8=
EXTT9=
EXTT10=
EXTT11=
EXTT12=
EXTT13=
EXTT14=
EXTT15=
EXTT16=
PLAYORDER=
